<svg xmlns="http://www.w3.org/2000/svg" viewBox="0 0 238 56" role="img" aria-label="HOONNOTE">
  <rect x="3" y="7" width="42" height="42" rx="10" fill="#2F67F6"/>
  <path d="M16 18v20M32 18v20M16 28h16" fill="none" stroke="#FFFFFF" stroke-width="4.6" stroke-linecap="round" stroke-linejoin="round"/>
  <path d="M61.01953125 36.5H64.1220703125V31.0771484375H69.3515625V36.5H72.4453125V23.404296875H69.3515625V28.5458984375H64.1220703125V23.404296875H61.01953125Z" fill="#0B1C38"/><path d="M81.6845703125 36.67578125C85.19140625 36.67578125 87.9072265625 34.2763671875 87.9072265625 29.9609375C87.9072265625 25.63671875 85.19140625 23.228515625 81.6845703125 23.228515625C78.16015625 23.228515625 75.4443359375 25.63671875 75.4443359375 29.9609375C75.4443359375 34.2587890625 78.16015625 36.67578125 81.6845703125 36.67578125ZM81.6845703125 33.951171875C79.77734375 33.951171875 78.6171875 32.544921875 78.6171875 29.9609375C78.6171875 27.3681640625 79.77734375 25.953125 81.6845703125 25.953125C83.5830078125 25.953125 84.7431640625 27.359375 84.7431640625 29.9609375C84.7431640625 32.544921875 83.5830078125 33.951171875 81.6845703125 33.951171875Z" fill="#0B1C38"/><path d="M96.84765625 36.67578125C100.3544921875 36.67578125 103.0703125 34.2763671875 103.0703125 29.9609375C103.0703125 25.63671875 100.3544921875 23.228515625 96.84765625 23.228515625C93.3232421875 23.228515625 90.607421875 25.63671875 90.607421875 29.9609375C90.607421875 34.2587890625 93.3232421875 36.67578125 96.84765625 36.67578125ZM96.84765625 33.951171875C94.9404296875 33.951171875 93.7802734375 32.544921875 93.7802734375 29.9609375C93.7802734375 27.3681640625 94.9404296875 25.953125 96.84765625 25.953125C98.74609375 25.953125 99.90625 27.359375 99.90625 29.9609375C99.90625 32.544921875 98.74609375 33.951171875 96.84765625 33.951171875Z" fill="#0B1C38"/><path d="M106.0693359375 36.5H109.2509765625V31.0771484375C109.2509765625 30.2509765625 109.1630859375 28.8271484375 109.0576171875 27.271484375C109.787109375 28.8359375 110.2705078125 29.8203125 111.0439453125 31.0771484375L114.392578125 36.5H117.8115234375V23.404296875H114.6298828125V28.9765625C114.6298828125 29.890625 114.7265625 31.3935546875 114.814453125 32.703125C114.2607421875 31.279296875 113.7158203125 30.2861328125 113.1357421875 29.3193359375L109.4794921875 23.404296875H106.0693359375Z" fill="#0B1C38"/><path d="M121.1005859375 36.5H124.2822265625V31.0771484375C124.2822265625 30.2509765625 124.1943359375 28.8271484375 124.0888671875 27.271484375C124.818359375 28.8359375 125.3017578125 29.8203125 126.0751953125 31.0771484375L129.423828125 36.5H132.8427734375V23.404296875H129.6611328125V28.9765625C129.6611328125 29.890625 129.7578125 31.3935546875 129.845703125 32.703125C129.2919921875 31.279296875 128.7470703125 30.2861328125 128.1669921875 29.3193359375L124.5107421875 23.404296875H121.1005859375Z" fill="#0B1C38"/><path d="M142.0732421875 36.67578125C145.580078125 36.67578125 148.2958984375 34.2763671875 148.2958984375 29.9609375C148.2958984375 25.63671875 145.580078125 23.228515625 142.0732421875 23.228515625C138.548828125 23.228515625 135.8330078125 25.63671875 135.8330078125 29.9609375C135.8330078125 34.2587890625 138.548828125 36.67578125 142.0732421875 36.67578125ZM142.0732421875 33.951171875C140.166015625 33.951171875 139.005859375 32.544921875 139.005859375 29.9609375C139.005859375 27.3681640625 140.166015625 25.953125 142.0732421875 25.953125C143.9716796875 25.953125 145.1318359375 27.359375 145.1318359375 29.9609375C145.1318359375 32.544921875 143.9716796875 33.951171875 142.0732421875 33.951171875Z" fill="#0B1C38"/><path d="M150.85546875 25.935546875H154.8193359375V36.5H157.9130859375V25.935546875H161.876953125V23.404296875H150.85546875Z" fill="#0B1C38"/><path d="M164.7265625 36.5H173.8056640625V33.96875H167.8291015625V31.12109375H173.33984375V28.642578125H167.8291015625V25.935546875H173.814453125V23.404296875H164.7265625Z" fill="#0B1C38"/>
</svg>