<svg xmlns="http://www.w3.org/2000/svg" viewBox="0 0 512 512" fill="none">
  <path d="M230 36h52c12 0 22 10 22 22v55c18 6 34 15 49 28l40-40c9-9 23-9 32 0l37 37c9 9 9 23 0 32l-40 40c13 15 22 31 28 49h55c12 0 22 10 22 22v52c0 12-10 22-22 22h-55c-6 18-15 34-28 49l40 40c9 9 9 23 0 32l-37 37c-9 9-23 9-32 0l-40-40c-15 13-31 22-49 28v55c0 12-10 22-22 22h-52c-12 0-22-10-22-22v-55c-18-6-34-15-49-28l-40 40c-9 9-23 9-32 0l-37-37c-9-9-9-23 0-32l40-40c-13-15-22-31-28-49H58c-12 0-22-10-22-22v-52c0-12 10-22 22-22h55c6-18 15-34 28-49l-40-40c-9-9-9-23 0-32l37-37c9-9 23-9 32 0l40 40c15-13 31-22 49-28V58c0-12 10-22 22-22Z" fill="#d6d6d8" stroke="#3d3d42" stroke-width="16" stroke-linejoin="round"/>
  <circle cx="256" cy="256" r="92" fill="#ececed" stroke="#3d3d42" stroke-width="16"/>
</svg>